<svg xmlns="http://www.w3.org/2000/svg" xmlns:v="https://svgstorm.com"
viewBox = "0 0 1428 700"
width="1428"
height="700">
<g fill="None" fill-opacity="0.0" stroke="#FEFEFE" stroke-opacity="1.00" stroke-width="0.3"><path d="
M 0.00 304.00 
C 6.32 223.52 80.56 138.00 166.00 138.00
C 174.81 137.15 185.26 137.15 194.00 138.00
C 201.94 138.00 210.62 139.41 218.02 140.98 C 225.43 142.54 233.20 144.50 240.07 146.93 C 246.95 149.36 253.71 152.10 260.08 154.92 C 266.44 157.75 271.61 161.44 277.25 164.75 C 282.88 168.06 289.47 171.76 294.08 175.92 C 298.69 180.08 305.58 184.61 309.25 188.75 C 312.91 192.90 322.06 200.11 322.00 200.00
C 327.62 151.69 350.40 109.98 382.00 73.00
C 386.25 68.02 391.07 63.21 396.00 59.00
C 435.48 25.27 481.82 1.52 534.00 0.00
L 0.00 0.00
L 0.00 304.00 Z"/>
</g>
<g fill="None" fill-opacity="0.0" stroke="#AC0000" stroke-opacity="1.00" stroke-width="0.3"><path d="
M 396.00 59.00 
C 391.41 63.59 386.54 68.46 382.00 73.00
C 350.40 109.98 327.62 151.69 322.00 200.00
C 314.49 264.57 345.81 336.84 393.75 380.25 C 441.69 423.65 477.07 464.63 525.00 506.00
C 528.22 508.78 531.07 512.07 534.00 515.00
C 541.43 521.35 548.14 528.12 555.25 534.75 C 562.36 541.39 568.91 548.53 576.25 554.75 C 583.58 560.98 589.56 569.08 597.08 574.92 C 604.60 580.75 610.53 588.99 617.75 595.25 C 624.98 601.51 632.02 608.14 638.75 615.25 C 645.48 622.35 653.03 628.05 659.75 635.25 C 666.47 642.44 673.97 648.03 680.75 655.25 C 687.54 662.47 694.30 668.84 701.75 675.25 C 709.19 681.67 714.65 689.01 722.25 695.75 C 729.84 702.49 736.81 688.17 743.75 682.75 C 750.69 677.33 758.01 669.27 764.75 662.75 C 771.49 656.23 778.86 648.10 786.00 642.00
C 790.96 637.04 795.68 631.55 801.00 627.00
C 821.41 609.56 838.61 588.43 859.00 571.00
C 867.25 562.75 875.80 554.20 884.00 546.00
C 889.95 540.05 895.62 533.45 902.00 528.00
C 907.15 523.60 911.92 518.39 917.00 514.00
C 941.02 493.27 960.08 470.50 983.75 448.75 C 1007.43 427.01 1027.09 406.12 1050.75 382.75 C 1074.41 359.38 1089.83 335.21 1104.31 304.31 C 1118.78 273.40 1123.37 226.22 1119.00 192.00
C 1106.35 92.86 1014.48 3.00 912.00 3.00
C 902.81 3.00 892.38 2.07 884.00 2.00
C 874.60 2.83 863.23 4.57 854.00 6.00 C 844.76 7.43 835.57 11.43 826.93 13.93 C 818.28 16.43 809.85 20.44 801.92 23.92 C 794.00 27.41 786.89 32.81 779.75 36.75 C 772.62 40.70 766.16 46.72 759.77 50.77 C 753.38 54.82 747.46 64.32 741.75 67.75 C 736.05 71.19 730.58 86.58 724.77 84.21 C 718.96 81.84 713.93 70.51 707.75 66.25 C 701.57 61.99 696.12 53.82 689.25 49.75 C 682.39 45.67 676.64 39.77 669.25 35.75 C 661.87 31.72 654.82 26.92 646.77 23.23 C 638.72 19.54 630.65 15.89 621.93 13.07 C 613.20 10.26 604.45 6.59 594.93 5.07 C 585.40 3.55 574.09 1.00 564.00 1.00
C 561.16 1.00 557.02 1.79 555.00 0.00
L 534.00 0.00
C 481.82 1.52 435.48 25.27 396.00 59.00 Z"/>
</g>
<g fill="None" fill-opacity="0.0" stroke="#D57A79" stroke-opacity="1.00" stroke-width="0.3"><path d="
M 564.00 1.00 
C 563.96 1.00 564.00 0.00 564.00 0.00
L 555.00 0.00
C 557.02 1.79 561.16 1.00 564.00 1.00 Z"/>
</g>
<g fill="None" fill-opacity="0.0" stroke="#FEFEFE" stroke-opacity="1.00" stroke-width="0.3"><path d="
M 564.00 1.00 
C 574.09 1.00 585.40 3.55 594.93 5.07 C 604.45 6.59 613.20 10.26 621.93 13.07 C 630.65 15.89 638.72 19.54 646.77 23.23 C 654.82 26.92 661.87 31.72 669.25 35.75 C 676.64 39.77 682.39 45.67 689.25 49.75 C 696.12 53.82 701.57 61.99 707.75 66.25 C 713.93 70.51 718.96 81.84 724.77 84.21 C 730.58 86.58 736.05 71.19 741.75 67.75 C 747.46 64.32 753.38 54.82 759.77 50.77 C 766.16 46.72 772.62 40.70 779.75 36.75 C 786.89 32.81 794.00 27.41 801.92 23.92 C 809.85 20.44 818.28 16.43 826.93 13.93 C 835.57 11.43 844.76 7.43 854.00 6.00 C 863.23 4.57 874.60 2.83 884.00 2.00
C 893.17 1.19 903.62 2.19 912.00 3.00
C 1014.48 3.00 1106.35 92.86 1119.00 192.00
C 1119.34 192.87 1118.73 194.11 1119.00 195.00
C 1166.86 140.00 1252.35 125.72 1317.07 151.93 C 1381.80 178.14 1424.57 240.51 1427.00 309.00
C 1427.00 308.96 1428.00 309.00 1428.00 309.00
L 1428.00 0.00
L 564.00 0.00
C 564.00 0.00 563.96 1.00 564.00 1.00 Z"/>
</g>
<g fill="None" fill-opacity="0.0" stroke="#C34544" stroke-opacity="1.00" stroke-width="0.3"><path d="
M 912.00 3.00 
C 903.62 2.19 893.17 1.19 884.00 2.00
C 892.38 2.07 902.81 3.00 912.00 3.00 Z"/>
</g>
<g fill="None" fill-opacity="0.0" stroke="#D47A7A" stroke-opacity="1.00" stroke-width="0.3"><path d="
M 382.00 73.00 
C 386.54 68.46 391.41 63.59 396.00 59.00
C 391.07 63.21 386.25 68.02 382.00 73.00 Z"/>
</g>
<g fill="None" fill-opacity="0.0" stroke="#D98689" stroke-opacity="1.00" stroke-width="0.3"><path d="
M 166.00 138.00 
C 175.33 138.00 184.67 138.00 194.00 138.00
C 185.26 137.15 174.81 137.15 166.00 138.00 Z"/>
</g>
<g fill="None" fill-opacity="0.0" stroke="#BA2328" stroke-opacity="1.00" stroke-width="0.3"><path d="
M 0.00 304.00 
L 0.00 328.00
C 3.41 379.44 37.40 425.43 75.75 459.25 C 114.10 493.06 143.67 528.24 182.00 561.00
C 185.60 564.07 188.73 567.73 192.00 571.00
C 196.44 574.79 200.61 579.25 205.00 583.00
C 212.14 589.10 218.43 596.43 225.00 603.00
C 260.04 632.94 291.02 668.14 325.00 699.00
C 388.39 640.70 449.49 577.98 512.00 518.00
C 515.64 514.36 519.30 508.29 524.00 506.00
C 524.40 505.80 525.00 506.00 525.00 506.00
C 477.07 464.63 441.69 423.65 393.75 380.25 C 345.81 336.84 314.49 264.57 322.00 200.00
C 322.06 200.11 312.91 192.90 309.25 188.75 C 305.58 184.61 298.69 180.08 294.08 175.92 C 289.47 171.76 282.88 168.06 277.25 164.75 C 271.61 161.44 266.44 157.75 260.08 154.92 C 253.71 152.10 246.95 149.36 240.07 146.93 C 233.20 144.50 225.43 142.54 218.02 140.98 C 210.62 139.41 201.94 138.00 194.00 138.00
C 184.67 138.00 175.33 138.00 166.00 138.00
C 80.56 138.00 6.32 223.52 0.00 304.00 Z"/>
</g>
<g fill="None" fill-opacity="0.0" stroke="#BE2131" stroke-opacity="1.00" stroke-width="0.3"><path d="
M 1119.00 192.00 
C 1123.37 226.22 1118.78 273.40 1104.31 304.31 C 1089.83 335.21 1074.41 359.38 1050.75 382.75 C 1027.09 406.12 1007.43 427.01 983.75 448.75 C 960.08 470.50 941.02 493.27 917.00 514.00
C 919.77 514.00 924.28 521.28 926.00 523.00
C 985.73 574.04 1037.34 635.02 1097.00 686.00
C 1101.59 689.92 1106.27 694.32 1110.00 699.00
C 1115.15 697.31 1121.10 689.90 1125.00 686.00
C 1150.37 656.31 1181.38 632.91 1208.25 604.25 C 1235.12 575.58 1264.88 550.95 1292.25 522.25 C 1319.61 493.55 1348.67 469.66 1376.25 440.25 C 1403.83 410.84 1427.00 366.36 1427.00 325.00
C 1427.00 319.67 1427.00 314.33 1427.00 309.00
C 1424.57 240.51 1381.80 178.14 1317.07 151.93 C 1252.35 125.72 1166.86 140.00 1119.00 195.00
C 1118.73 194.11 1119.34 192.87 1119.00 192.00 Z"/>
</g>
<g fill="None" fill-opacity="0.0" stroke="#ECC0C4" stroke-opacity="1.00" stroke-width="0.3"><path d="
M 1427.00 325.00 
C 1427.00 324.96 1428.00 325.00 1428.00 325.00
L 1428.00 309.00
C 1428.00 309.00 1427.00 308.96 1427.00 309.00
C 1427.00 314.33 1427.00 319.67 1427.00 325.00 Z"/>
</g>
<g fill="None" fill-opacity="0.0" stroke="#FEFEFE" stroke-opacity="1.00" stroke-width="0.3"><path d="
M 1125.00 686.00 
C 1120.90 690.80 1115.95 695.16 1112.00 700.00
L 1428.00 700.00
L 1428.00 325.00
C 1428.00 325.00 1427.00 324.96 1427.00 325.00
C 1427.00 366.36 1403.83 410.84 1376.25 440.25 C 1348.67 469.66 1319.61 493.55 1292.25 522.25 C 1264.88 550.95 1235.12 575.58 1208.25 604.25 C 1181.38 632.91 1150.37 656.31 1125.00 686.00 Z"/>
</g>
<g fill="None" fill-opacity="0.0" stroke="#FEFEFE" stroke-opacity="1.00" stroke-width="0.3"><path d="
M 0.00 700.00 
L 1110.00 700.00
C 1110.00 699.50 1110.00 699.00 1110.00 699.00
C 1105.01 695.51 1101.19 690.19 1097.00 686.00
C 1037.34 635.02 985.73 574.04 926.00 523.00
C 923.19 520.60 919.98 518.12 918.00 515.00
C 908.27 520.96 901.20 531.92 892.00 539.00
C 889.39 541.23 886.37 543.63 884.00 546.00
C 875.74 554.26 867.86 563.43 859.00 571.00
C 838.61 588.43 821.41 609.56 801.00 627.00
C 796.03 631.96 791.32 637.45 786.00 642.00
C 778.86 648.10 771.49 656.23 764.75 662.75 C 758.01 669.27 750.69 677.33 743.75 682.75 C 736.81 688.17 729.84 702.49 722.25 695.75 C 714.65 689.01 709.19 681.67 701.75 675.25 C 694.30 668.84 687.54 662.47 680.75 655.25 C 673.97 648.03 666.47 642.44 659.75 635.25 C 653.03 628.05 645.48 622.35 638.75 615.25 C 632.02 608.14 624.98 601.51 617.75 595.25 C 610.53 588.99 604.60 580.75 597.08 574.92 C 589.56 569.08 583.58 560.98 576.25 554.75 C 568.91 548.53 562.36 541.39 555.25 534.75 C 548.14 528.12 541.43 521.35 534.00 515.00
C 530.82 512.28 527.39 509.41 525.00 506.00
C 525.00 506.00 524.40 505.80 524.00 506.00
C 520.85 510.51 516.10 514.50 512.00 518.00
C 449.49 577.98 388.39 640.70 325.00 699.00
C 291.02 668.14 260.04 632.94 225.00 603.00
C 217.86 596.90 211.56 589.56 205.00 583.00
C 200.61 579.25 196.44 574.79 192.00 571.00
C 188.40 567.93 185.27 564.27 182.00 561.00
C 143.67 528.24 114.10 493.06 75.75 459.25 C 37.40 425.43 3.41 379.44 0.00 328.00
L 0.00 700.00 Z"/>
</g>
<g fill="None" fill-opacity="0.0" stroke="#DC8F92" stroke-opacity="1.00" stroke-width="0.3"><path d="
M 512.00 518.00 
C 516.10 514.50 520.85 510.51 524.00 506.00
C 519.30 508.29 515.64 514.36 512.00 518.00 Z"/>
</g>
<g fill="None" fill-opacity="0.0" stroke="#E2A4A4" stroke-opacity="1.00" stroke-width="0.3"><path d="
M 534.00 515.00 
C 531.07 512.07 528.22 508.78 525.00 506.00
C 527.39 509.41 530.82 512.28 534.00 515.00 Z"/>
</g>
<g fill="None" fill-opacity="0.0" stroke="#E7B3B4" stroke-opacity="1.00" stroke-width="0.3"><path d="
M 902.00 528.00 
C 898.58 531.42 895.37 535.63 892.00 539.00
C 901.20 531.92 908.27 520.96 918.00 515.00
C 919.98 518.12 923.19 520.60 926.00 523.00
C 924.28 521.28 919.77 514.00 917.00 514.00
C 911.92 518.39 907.15 523.60 902.00 528.00 Z"/>
</g>
<g fill="None" fill-opacity="0.0" stroke="#C03D3C" stroke-opacity="1.00" stroke-width="0.3"><path d="
M 884.00 546.00 
C 886.37 543.63 889.39 541.23 892.00 539.00
C 895.37 535.63 898.58 531.42 902.00 528.00
C 895.62 533.45 889.95 540.05 884.00 546.00 Z"/>
</g>
<g fill="None" fill-opacity="0.0" stroke="#D88686" stroke-opacity="1.00" stroke-width="0.3"><path d="
M 859.00 571.00 
C 867.86 563.43 875.74 554.26 884.00 546.00
C 875.80 554.20 867.25 562.75 859.00 571.00 Z"/>
</g>
<g fill="None" fill-opacity="0.0" stroke="#CF6569" stroke-opacity="1.00" stroke-width="0.3"><path d="
M 192.00 571.00 
C 188.73 567.73 185.60 564.07 182.00 561.00
C 185.27 564.27 188.40 567.93 192.00 571.00 Z"/>
</g>
<g fill="None" fill-opacity="0.0" stroke="#D77E80" stroke-opacity="1.00" stroke-width="0.3"><path d="
M 225.00 603.00 
C 218.43 596.43 212.14 589.10 205.00 583.00
C 211.56 589.56 217.86 596.90 225.00 603.00 Z"/>
</g>
<g fill="None" fill-opacity="0.0" stroke="#D47A7A" stroke-opacity="1.00" stroke-width="0.3"><path d="
M 786.00 642.00 
C 791.32 637.45 796.03 631.96 801.00 627.00
C 795.68 631.55 790.96 637.04 786.00 642.00 Z"/>
</g>
<g fill="None" fill-opacity="0.0" stroke="#D6747D" stroke-opacity="1.00" stroke-width="0.3"><path d="
M 1110.00 699.00 
C 1106.27 694.32 1101.59 689.92 1097.00 686.00
C 1101.19 690.19 1105.01 695.51 1110.00 699.00 Z"/>
</g>
<g fill="None" fill-opacity="0.0" stroke="#F3D7DA" stroke-opacity="1.00" stroke-width="0.3"><path d="
M 1110.00 699.00 
C 1110.00 699.00 1110.00 699.50 1110.00 700.00
L 1112.00 700.00
C 1115.95 695.16 1120.90 690.80 1125.00 686.00
C 1121.10 689.90 1115.15 697.31 1110.00 699.00 Z"/>
</g>
<g fill="#FEFEFE" fill-opacity="1.00" stroke="None">
<path d="
M 0.00 304.00 
C 6.32 223.52 80.56 138.00 166.00 138.00
C 174.81 137.15 185.26 137.15 194.00 138.00
C 201.94 138.00 210.62 139.41 218.02 140.98 C 225.43 142.54 233.20 144.50 240.07 146.93 C 246.95 149.36 253.71 152.10 260.08 154.92 C 266.44 157.75 271.61 161.44 277.25 164.75 C 282.88 168.06 289.47 171.76 294.08 175.92 C 298.69 180.08 305.58 184.61 309.25 188.75 C 312.91 192.90 322.06 200.11 322.00 200.00
C 327.62 151.69 350.40 109.98 382.00 73.00
C 386.25 68.02 391.07 63.21 396.00 59.00
C 435.48 25.27 481.82 1.52 534.00 0.00
L 0.00 0.00
L 0.00 304.00 Z"/>
</g>
<g fill="#AC0000" fill-opacity="1.00" stroke="None">
<path d="
M 396.00 59.00 
C 391.41 63.59 386.54 68.46 382.00 73.00
C 350.40 109.98 327.62 151.69 322.00 200.00
C 314.49 264.57 345.81 336.84 393.75 380.25 C 441.69 423.65 477.07 464.63 525.00 506.00
C 528.22 508.78 531.07 512.07 534.00 515.00
C 541.43 521.35 548.14 528.12 555.25 534.75 C 562.36 541.39 568.91 548.53 576.25 554.75 C 583.58 560.98 589.56 569.08 597.08 574.92 C 604.60 580.75 610.53 588.99 617.75 595.25 C 624.98 601.51 632.02 608.14 638.75 615.25 C 645.48 622.35 653.03 628.05 659.75 635.25 C 666.47 642.44 673.97 648.03 680.75 655.25 C 687.54 662.47 694.30 668.84 701.75 675.25 C 709.19 681.67 714.65 689.01 722.25 695.75 C 729.84 702.49 736.81 688.17 743.75 682.75 C 750.69 677.33 758.01 669.27 764.75 662.75 C 771.49 656.23 778.86 648.10 786.00 642.00
C 790.96 637.04 795.68 631.55 801.00 627.00
C 821.41 609.56 838.61 588.43 859.00 571.00
C 867.25 562.75 875.80 554.20 884.00 546.00
C 889.95 540.05 895.62 533.45 902.00 528.00
C 907.15 523.60 911.92 518.39 917.00 514.00
C 941.02 493.27 960.08 470.50 983.75 448.75 C 1007.43 427.01 1027.09 406.12 1050.75 382.75 C 1074.41 359.38 1089.83 335.21 1104.31 304.31 C 1118.78 273.40 1123.37 226.22 1119.00 192.00
C 1106.35 92.86 1014.48 3.00 912.00 3.00
C 902.81 3.00 892.38 2.07 884.00 2.00
C 874.60 2.83 863.23 4.57 854.00 6.00 C 844.76 7.43 835.57 11.43 826.93 13.93 C 818.28 16.43 809.85 20.44 801.92 23.92 C 794.00 27.41 786.89 32.81 779.75 36.75 C 772.62 40.70 766.16 46.72 759.77 50.77 C 753.38 54.82 747.46 64.32 741.75 67.75 C 736.05 71.19 730.58 86.58 724.77 84.21 C 718.96 81.84 713.93 70.51 707.75 66.25 C 701.57 61.99 696.12 53.82 689.25 49.75 C 682.39 45.67 676.64 39.77 669.25 35.75 C 661.87 31.72 654.82 26.92 646.77 23.23 C 638.72 19.54 630.65 15.89 621.93 13.07 C 613.20 10.26 604.45 6.59 594.93 5.07 C 585.40 3.55 574.09 1.00 564.00 1.00
C 561.16 1.00 557.02 1.79 555.00 0.00
L 534.00 0.00
C 481.82 1.52 435.48 25.27 396.00 59.00 Z"/>
</g>
<g fill="#D57A79" fill-opacity="1.00" stroke="None">
<path d="
M 564.00 1.00 
C 563.96 1.00 564.00 0.00 564.00 0.00
L 555.00 0.00
C 557.02 1.79 561.16 1.00 564.00 1.00 Z"/>
</g>
<g fill="#FEFEFE" fill-opacity="1.00" stroke="None">
<path d="
M 564.00 1.00 
C 574.09 1.00 585.40 3.55 594.93 5.07 C 604.45 6.59 613.20 10.26 621.93 13.07 C 630.65 15.89 638.72 19.54 646.77 23.23 C 654.82 26.92 661.87 31.72 669.25 35.75 C 676.64 39.77 682.39 45.67 689.25 49.75 C 696.12 53.82 701.57 61.99 707.75 66.25 C 713.93 70.51 718.96 81.84 724.77 84.21 C 730.58 86.58 736.05 71.19 741.75 67.75 C 747.46 64.32 753.38 54.82 759.77 50.77 C 766.16 46.72 772.62 40.70 779.75 36.75 C 786.89 32.81 794.00 27.41 801.92 23.92 C 809.85 20.44 818.28 16.43 826.93 13.93 C 835.57 11.43 844.76 7.43 854.00 6.00 C 863.23 4.57 874.60 2.83 884.00 2.00
C 893.17 1.19 903.62 2.19 912.00 3.00
C 1014.48 3.00 1106.35 92.86 1119.00 192.00
C 1119.34 192.87 1118.73 194.11 1119.00 195.00
C 1166.86 140.00 1252.35 125.72 1317.07 151.93 C 1381.80 178.14 1424.57 240.51 1427.00 309.00
C 1427.00 308.96 1428.00 309.00 1428.00 309.00
L 1428.00 0.00
L 564.00 0.00
C 564.00 0.00 563.96 1.00 564.00 1.00 Z"/>
</g>
<g fill="#C34544" fill-opacity="1.00" stroke="None">
<path d="
M 912.00 3.00 
C 903.62 2.19 893.17 1.19 884.00 2.00
C 892.38 2.07 902.81 3.00 912.00 3.00 Z"/>
</g>
<g fill="#D47A7A" fill-opacity="1.00" stroke="None">
<path d="
M 382.00 73.00 
C 386.54 68.46 391.41 63.59 396.00 59.00
C 391.07 63.21 386.25 68.02 382.00 73.00 Z"/>
</g>
<g fill="#D98689" fill-opacity="1.00" stroke="None">
<path d="
M 166.00 138.00 
C 175.33 138.00 184.67 138.00 194.00 138.00
C 185.26 137.15 174.81 137.15 166.00 138.00 Z"/>
</g>
<g fill="#BA2328" fill-opacity="1.00" stroke="None">
<path d="
M 0.00 304.00 
L 0.00 328.00
C 3.41 379.44 37.40 425.43 75.75 459.25 C 114.10 493.06 143.67 528.24 182.00 561.00
C 185.60 564.07 188.73 567.73 192.00 571.00
C 196.44 574.79 200.61 579.25 205.00 583.00
C 212.14 589.10 218.43 596.43 225.00 603.00
C 260.04 632.94 291.02 668.14 325.00 699.00
C 388.39 640.70 449.49 577.98 512.00 518.00
C 515.64 514.36 519.30 508.29 524.00 506.00
C 524.40 505.80 525.00 506.00 525.00 506.00
C 477.07 464.63 441.69 423.65 393.75 380.25 C 345.81 336.84 314.49 264.57 322.00 200.00
C 322.06 200.11 312.91 192.90 309.25 188.75 C 305.58 184.61 298.69 180.08 294.08 175.92 C 289.47 171.76 282.88 168.06 277.25 164.75 C 271.61 161.44 266.44 157.75 260.08 154.92 C 253.71 152.10 246.95 149.36 240.07 146.93 C 233.20 144.50 225.43 142.54 218.02 140.98 C 210.62 139.41 201.94 138.00 194.00 138.00
C 184.67 138.00 175.33 138.00 166.00 138.00
C 80.56 138.00 6.32 223.52 0.00 304.00 Z"/>
</g>
<g fill="#BE2131" fill-opacity="1.00" stroke="None">
<path d="
M 1119.00 192.00 
C 1123.37 226.22 1118.78 273.40 1104.31 304.31 C 1089.83 335.21 1074.41 359.38 1050.75 382.75 C 1027.09 406.12 1007.43 427.01 983.75 448.75 C 960.08 470.50 941.02 493.27 917.00 514.00
C 919.77 514.00 924.28 521.28 926.00 523.00
C 985.73 574.04 1037.34 635.02 1097.00 686.00
C 1101.59 689.92 1106.27 694.32 1110.00 699.00
C 1115.15 697.31 1121.10 689.90 1125.00 686.00
C 1150.37 656.31 1181.38 632.91 1208.25 604.25 C 1235.12 575.58 1264.88 550.95 1292.25 522.25 C 1319.61 493.55 1348.67 469.66 1376.25 440.25 C 1403.83 410.84 1427.00 366.36 1427.00 325.00
C 1427.00 319.67 1427.00 314.33 1427.00 309.00
C 1424.57 240.51 1381.80 178.14 1317.07 151.93 C 1252.35 125.72 1166.86 140.00 1119.00 195.00
C 1118.73 194.11 1119.34 192.87 1119.00 192.00 Z"/>
</g>
<g fill="#ECC0C4" fill-opacity="1.00" stroke="None">
<path d="
M 1427.00 325.00 
C 1427.00 324.96 1428.00 325.00 1428.00 325.00
L 1428.00 309.00
C 1428.00 309.00 1427.00 308.96 1427.00 309.00
C 1427.00 314.33 1427.00 319.67 1427.00 325.00 Z"/>
</g>
<g fill="#FEFEFE" fill-opacity="1.00" stroke="None">
<path d="
M 1125.00 686.00 
C 1120.90 690.80 1115.95 695.16 1112.00 700.00
L 1428.00 700.00
L 1428.00 325.00
C 1428.00 325.00 1427.00 324.96 1427.00 325.00
C 1427.00 366.36 1403.83 410.84 1376.25 440.25 C 1348.67 469.66 1319.61 493.55 1292.25 522.25 C 1264.88 550.95 1235.12 575.58 1208.25 604.25 C 1181.38 632.91 1150.37 656.31 1125.00 686.00 Z"/>
</g>
<g fill="#FEFEFE" fill-opacity="1.00" stroke="None">
<path d="
M 0.00 700.00 
L 1110.00 700.00
C 1110.00 699.50 1110.00 699.00 1110.00 699.00
C 1105.01 695.51 1101.19 690.19 1097.00 686.00
C 1037.34 635.02 985.73 574.04 926.00 523.00
C 923.19 520.60 919.98 518.12 918.00 515.00
C 908.27 520.96 901.20 531.92 892.00 539.00
C 889.39 541.23 886.37 543.63 884.00 546.00
C 875.74 554.26 867.86 563.43 859.00 571.00
C 838.61 588.43 821.41 609.56 801.00 627.00
C 796.03 631.96 791.32 637.45 786.00 642.00
C 778.86 648.10 771.49 656.23 764.75 662.75 C 758.01 669.27 750.69 677.33 743.75 682.75 C 736.81 688.17 729.84 702.49 722.25 695.75 C 714.65 689.01 709.19 681.67 701.75 675.25 C 694.30 668.84 687.54 662.47 680.75 655.25 C 673.97 648.03 666.47 642.44 659.75 635.25 C 653.03 628.05 645.48 622.35 638.75 615.25 C 632.02 608.14 624.98 601.51 617.75 595.25 C 610.53 588.99 604.60 580.75 597.08 574.92 C 589.56 569.08 583.58 560.98 576.25 554.75 C 568.91 548.53 562.36 541.39 555.25 534.75 C 548.14 528.12 541.43 521.35 534.00 515.00
C 530.82 512.28 527.39 509.41 525.00 506.00
C 525.00 506.00 524.40 505.80 524.00 506.00
C 520.85 510.51 516.10 514.50 512.00 518.00
C 449.49 577.98 388.39 640.70 325.00 699.00
C 291.02 668.14 260.04 632.94 225.00 603.00
C 217.86 596.90 211.56 589.56 205.00 583.00
C 200.61 579.25 196.44 574.79 192.00 571.00
C 188.40 567.93 185.27 564.27 182.00 561.00
C 143.67 528.24 114.10 493.06 75.75 459.25 C 37.40 425.43 3.41 379.44 0.00 328.00
L 0.00 700.00 Z"/>
</g>
<g fill="#DC8F92" fill-opacity="1.00" stroke="None">
<path d="
M 512.00 518.00 
C 516.10 514.50 520.85 510.51 524.00 506.00
C 519.30 508.29 515.64 514.36 512.00 518.00 Z"/>
</g>
<g fill="#E2A4A4" fill-opacity="1.00" stroke="None">
<path d="
M 534.00 515.00 
C 531.07 512.07 528.22 508.78 525.00 506.00
C 527.39 509.41 530.82 512.28 534.00 515.00 Z"/>
</g>
<g fill="#E7B3B4" fill-opacity="1.00" stroke="None">
<path d="
M 902.00 528.00 
C 898.58 531.42 895.37 535.63 892.00 539.00
C 901.20 531.92 908.27 520.96 918.00 515.00
C 919.98 518.12 923.19 520.60 926.00 523.00
C 924.28 521.28 919.77 514.00 917.00 514.00
C 911.92 518.39 907.15 523.60 902.00 528.00 Z"/>
</g>
<g fill="#C03D3C" fill-opacity="1.00" stroke="None">
<path d="
M 884.00 546.00 
C 886.37 543.63 889.39 541.23 892.00 539.00
C 895.37 535.63 898.58 531.42 902.00 528.00
C 895.62 533.45 889.95 540.05 884.00 546.00 Z"/>
</g>
<g fill="#D88686" fill-opacity="1.00" stroke="None">
<path d="
M 859.00 571.00 
C 867.86 563.43 875.74 554.26 884.00 546.00
C 875.80 554.20 867.25 562.75 859.00 571.00 Z"/>
</g>
<g fill="#CF6569" fill-opacity="1.00" stroke="None">
<path d="
M 192.00 571.00 
C 188.73 567.73 185.60 564.07 182.00 561.00
C 185.27 564.27 188.40 567.93 192.00 571.00 Z"/>
</g>
<g fill="#D77E80" fill-opacity="1.00" stroke="None">
<path d="
M 225.00 603.00 
C 218.43 596.43 212.14 589.10 205.00 583.00
C 211.56 589.56 217.86 596.90 225.00 603.00 Z"/>
</g>
<g fill="#D47A7A" fill-opacity="1.00" stroke="None">
<path d="
M 786.00 642.00 
C 791.32 637.45 796.03 631.96 801.00 627.00
C 795.68 631.55 790.96 637.04 786.00 642.00 Z"/>
</g>
<g fill="#D6747D" fill-opacity="1.00" stroke="None">
<path d="
M 1110.00 699.00 
C 1106.27 694.32 1101.59 689.92 1097.00 686.00
C 1101.19 690.19 1105.01 695.51 1110.00 699.00 Z"/>
</g>
<g fill="#F3D7DA" fill-opacity="1.00" stroke="None">
<path d="
M 1110.00 699.00 
C 1110.00 699.00 1110.00 699.50 1110.00 700.00
L 1112.00 700.00
C 1115.95 695.16 1120.90 690.80 1125.00 686.00
C 1121.10 689.90 1115.15 697.31 1110.00 699.00 Z"/>
</g>
</svg>