<svg xmlns="http://www.w3.org/2000/svg" xmlns:v="https://svgstorm.com"
viewBox = "0 0 721 366"
width="721"
height="366">
<g fill="None" fill-opacity="0.0" stroke="#FEFEFE" stroke-opacity="1.00" stroke-width="0.3"><path d="
M 0.00 156.00 
C 4.90 119.94 36.53 87.03 74.00 85.00
C 78.30 84.30 82.78 84.40 87.00 85.00
C 114.52 86.05 135.56 112.60 149.00 134.00
C 153.43 128.94 157.48 122.68 161.00 117.00
C 162.09 112.07 161.57 104.46 162.00 100.00
C 162.00 52.96 210.37 -0.03 259.00 1.00
C 258.80 0.60 259.00 0.00 259.00 0.00
L 0.00 0.00
L 0.00 156.00 Z"/>
</g>
<g fill="None" fill-opacity="0.0" stroke="#BA3A38" stroke-opacity="1.00" stroke-width="0.3"><path d="
M 259.00 1.00 
C 261.84 6.81 268.93 10.35 272.00 16.00
C 269.81 16.52 266.38 14.86 265.00 17.00
C 268.27 16.93 271.74 16.71 275.00 17.00
C 269.08 13.81 265.26 4.39 261.00 0.00
L 259.00 0.00
C 259.00 0.00 258.80 0.60 259.00 1.00 Z"/>
</g>
<g fill="None" fill-opacity="0.0" stroke="#B61411" stroke-opacity="1.00" stroke-width="0.3"><path d="
M 275.00 17.00 
C 295.87 18.84 313.41 34.15 327.75 49.25 C 342.10 64.34 350.00 85.63 362.00 101.00
C 379.35 65.18 406.72 19.02 452.00 17.00 C 497.28 14.98 540.85 56.15 543.00 101.00
C 533.06 92.99 521.99 85.75 509.00 85.00
C 505.03 84.78 500.98 85.00 497.00 85.00
C 485.27 85.00 472.53 89.10 462.92 94.92 C 453.31 100.73 446.06 106.30 439.25 115.25 C 432.43 124.19 427.14 132.99 424.07 144.07 C 421.01 155.16 420.98 173.38 423.33 184.67 C 425.68 195.96 431.97 205.96 437.30 215.70 C 442.64 225.43 449.87 231.97 456.25 240.75 C 462.63 249.54 447.19 256.97 441.25 264.25 C 435.31 271.53 426.08 279.02 419.25 286.25 C 412.42 293.48 403.61 301.50 396.00 308.00
C 392.35 311.65 388.90 315.67 385.00 319.00
C 377.60 325.32 366.81 332.41 361.00 340.00
C 358.12 343.76 356.05 349.66 351.00 352.00
C 350.73 354.75 354.29 355.68 355.00 358.00
C 356.10 359.68 356.69 362.25 358.00 364.00
C 397.51 332.95 434.13 295.67 470.00 259.00
C 479.00 266.95 486.55 276.46 495.00 285.00
C 503.58 293.58 512.46 302.46 521.00 311.00
C 538.22 325.72 554.72 342.41 570.00 358.00
C 585.75 343.40 602.13 328.80 618.00 314.00
C 628.58 303.42 639.46 292.54 650.00 282.00
C 664.01 265.61 678.05 252.04 690.77 234.77 C 703.49 217.50 718.78 197.42 720.00 175.00
C 720.30 169.42 720.21 163.59 720.00 158.00
C 718.58 120.80 682.41 85.00 645.00 85.00
C 641.02 85.00 636.97 84.78 633.00 85.00
C 606.26 86.45 585.69 112.34 572.00 133.00
C 555.40 123.01 561.59 99.86 557.22 83.78 C 552.85 67.69 546.33 53.08 536.00 40.00
C 531.99 35.11 525.73 29.12 521.00 25.00
C 503.42 11.93 483.50 2.38 462.00 0.00
L 441.00 0.00
C 406.63 7.60 379.35 36.57 361.00 66.00
C 354.13 56.25 346.92 46.27 339.00 37.00
C 335.63 33.35 331.48 29.48 328.00 26.00
C 313.76 13.83 297.90 3.78 280.00 0.00
L 261.00 0.00
C 265.26 4.39 269.08 13.81 275.00 17.00
M 543.00 120.00 
C 543.69 123.73 541.96 126.16 541.00 129.00
C 532.06 171.43 494.88 203.35 468.00 236.00
C 440.05 208.36 422.97 163.91 444.92 128.92 C 466.86 93.93 518.46 84.10 543.00 120.00
M 643.00 271.00 
C 631.68 284.25 618.20 297.72 605.00 309.00
C 593.53 318.80 582.61 329.48 572.00 340.00
C 564.85 335.72 558.52 328.35 551.92 323.08 C 545.32 317.82 539.45 310.24 533.25 304.75 C 527.05 299.27 519.55 292.92 514.25 286.75 C 508.95 280.59 499.71 274.26 496.25 267.75 C 492.78 261.25 478.35 254.89 480.79 247.77 C 483.23 240.66 493.79 235.03 498.25 228.25 C 502.71 221.46 509.75 214.70 514.75 207.75 C 519.76 200.80 526.07 194.27 530.77 186.77 C 535.47 179.27 541.06 172.42 545.25 164.25 C 549.45 156.09 554.73 146.35 556.00 137.00
C 563.04 141.94 566.01 152.32 570.00 160.00
C 586.08 130.27 612.50 91.40 652.00 98.00 C 691.51 104.60 717.13 149.91 705.01 186.01 C 692.89 222.11 666.46 242.21 643.00 271.00 Z"/>
</g>
<g fill="None" fill-opacity="0.0" stroke="#FEFDFC" stroke-opacity="1.00" stroke-width="0.3"><path d="
M 328.00 26.00 
C 331.91 29.34 335.84 33.00 339.00 37.00
C 346.92 46.27 354.13 56.25 361.00 66.00
C 379.35 36.57 406.63 7.60 441.00 0.00
L 280.00 0.00
C 297.90 3.78 313.76 13.83 328.00 26.00 Z"/>
</g>
<g fill="None" fill-opacity="0.0" stroke="#FEFEFE" stroke-opacity="1.00" stroke-width="0.3"><path d="
M 521.00 25.00 
C 526.23 28.89 532.29 34.70 536.00 40.00
C 546.33 53.08 552.85 67.69 557.22 83.78 C 561.59 99.86 555.40 123.01 572.00 133.00
C 585.69 112.34 606.26 86.45 633.00 85.00
C 636.96 84.36 641.18 84.63 645.00 85.00
C 682.41 85.00 718.58 120.80 720.00 158.00
C 720.00 157.98 721.00 158.00 721.00 158.00
L 721.00 0.00
L 462.00 0.00
C 483.50 2.38 503.42 11.93 521.00 25.00 Z"/>
</g>
<g fill="None" fill-opacity="0.0" stroke="#B81411" stroke-opacity="1.00" stroke-width="0.3"><path d="
M 162.00 100.00 
C 162.00 105.55 162.75 112.26 161.00 117.00
C 157.48 122.68 153.43 128.94 149.00 134.00
C 135.56 112.60 114.52 86.05 87.00 85.00
C 82.73 84.84 78.27 84.77 74.00 85.00
C 36.53 87.03 4.90 119.94 0.00 156.00
L 0.00 176.00
C 7.97 219.81 44.40 250.53 73.00 284.00
C 74.92 285.92 77.84 287.41 79.00 290.00
C 82.11 288.27 83.92 284.67 87.00 283.00
C 87.27 280.25 83.71 279.32 83.00 277.00
C 58.25 248.04 34.21 228.11 18.08 192.92 C 1.94 157.74 23.88 108.43 64.07 99.07 C 104.27 89.72 134.74 125.89 149.00 160.00
C 154.94 152.95 157.50 142.70 164.00 136.00
C 166.76 144.76 171.02 153.85 174.92 162.08 C 178.83 170.30 184.74 177.10 189.25 184.75 C 193.76 192.39 200.31 198.56 205.25 205.75 C 210.19 212.95 217.10 219.96 222.25 226.75 C 227.40 233.55 235.71 239.30 239.75 246.25 C 243.79 253.20 229.03 259.91 225.25 266.25 C 221.47 272.59 212.28 279.75 206.75 285.75 C 201.22 291.75 194.20 298.21 188.25 304.25 C 182.30 310.28 175.40 316.16 169.25 322.25 C 163.10 328.34 155.25 333.85 150.00 341.00
C 141.21 333.05 133.04 324.43 124.00 317.00
C 120.40 313.93 117.27 310.27 114.00 307.00
C 111.58 304.58 108.56 302.19 106.00 300.00
C 99.98 294.86 94.14 288.94 89.00 283.00
C 85.89 284.73 84.08 288.33 81.00 290.00
C 84.98 297.71 93.91 302.81 99.00 310.00
C 113.86 327.38 134.43 340.03 148.00 358.00
C 183.37 326.95 219.24 293.94 250.00 258.00
C 267.50 274.00 283.55 292.05 301.00 308.00
C 304.95 311.38 308.40 315.40 312.00 319.00
C 324.59 329.76 336.71 341.29 349.00 352.00
C 352.61 351.78 354.52 345.83 357.75 343.75 C 360.98 341.68 354.55 335.81 353.00 334.00
C 341.67 320.74 326.35 308.41 313.00 297.00
C 304.49 289.73 295.75 281.10 288.25 272.75 C 280.75 264.40 269.90 257.41 264.00 248.00
C 259.52 240.85 272.66 233.06 276.30 225.30 C 279.94 217.55 287.64 210.36 291.25 201.25 C 294.86 192.14 298.96 179.81 299.00 169.00 C 299.04 158.19 297.38 145.39 293.07 135.93 C 288.77 126.46 285.10 118.66 277.75 111.25 C 270.40 103.84 265.02 98.79 255.92 94.08 C 246.83 89.37 235.66 85.21 225.00 85.00
C 220.71 84.91 216.29 84.77 212.00 85.00
C 199.48 85.68 189.21 92.30 179.00 99.00
C 181.42 55.37 221.83 18.42 265.00 17.00
C 266.38 14.86 269.81 16.52 272.00 16.00
C 268.93 10.35 261.84 6.81 259.00 1.00
C 210.37 -0.03 162.00 52.96 162.00 100.00
M 253.00 235.00 
C 240.54 223.42 230.77 210.94 220.23 197.77 C 209.69 184.60 199.47 171.67 191.23 156.77 C 182.99 141.88 172.24 120.69 188.25 108.25 C 204.26 95.80 224.56 94.64 242.22 101.78 C 259.89 108.91 269.93 118.93 278.92 135.08 C 287.92 151.22 288.71 176.51 281.07 193.07 C 273.44 209.63 264.33 221.05 253.00 235.00 Z"/>
</g>
<g fill="None" fill-opacity="0.0" stroke="#FEFDFD" stroke-opacity="1.00" stroke-width="0.3"><path d="
M 212.00 85.00 
C 216.29 84.30 220.82 84.49 225.00 85.00
C 235.66 85.21 246.83 89.37 255.92 94.08 C 265.02 98.79 270.40 103.84 277.75 111.25 C 285.10 118.66 288.77 126.46 293.07 135.93 C 297.38 145.39 299.04 158.19 299.00 169.00 C 298.96 179.81 294.86 192.14 291.25 201.25 C 287.64 210.36 279.94 217.55 276.30 225.30 C 272.66 233.06 259.52 240.85 264.00 248.00
C 270.64 256.94 281.19 263.83 288.75 272.25 C 296.31 280.67 305.07 289.07 313.00 297.00
C 326.35 308.41 341.67 320.74 353.00 334.00
C 354.64 335.64 358.62 340.20 361.00 340.00
C 366.81 332.41 377.60 325.32 385.00 319.00
C 388.65 315.35 392.10 311.33 396.00 308.00
C 403.61 301.50 412.42 293.48 419.25 286.25 C 426.08 279.02 435.31 271.53 441.25 264.25 C 447.19 256.97 462.63 249.54 456.25 240.75 C 449.87 231.97 442.64 225.43 437.30 215.70 C 431.97 205.96 425.68 195.96 423.33 184.67 C 420.98 173.38 421.01 155.16 424.07 144.07 C 427.14 132.99 432.43 124.19 439.25 115.25 C 446.06 106.30 453.31 100.73 462.92 94.92 C 472.53 89.10 485.27 85.00 497.00 85.00
C 500.89 84.62 505.10 84.37 509.00 85.00
C 521.99 85.75 533.06 92.99 543.00 101.00
C 540.85 56.15 497.28 14.98 452.00 17.00 C 406.72 19.02 379.35 65.18 362.00 101.00
C 350.00 85.63 342.10 64.34 327.75 49.25 C 313.41 34.15 295.87 18.84 275.00 17.00
C 271.74 16.71 268.27 16.93 265.00 17.00
C 221.83 18.42 181.42 55.37 179.00 99.00
C 189.21 92.30 199.48 85.68 212.00 85.00
M 361.00 130.00 
C 372.85 157.36 396.90 177.73 393.22 210.22 C 389.54 242.71 331.55 242.53 327.68 210.32 C 323.81 178.11 348.13 156.05 361.00 130.00 Z"/>
</g>
<g fill="None" fill-opacity="0.0" stroke="#C98180" stroke-opacity="1.00" stroke-width="0.3"><path d="
M 536.00 40.00 
C 532.29 34.70 526.23 28.89 521.00 25.00
C 525.73 29.12 531.99 35.11 536.00 40.00 Z"/>
</g>
<g fill="None" fill-opacity="0.0" stroke="#D88685" stroke-opacity="1.00" stroke-width="0.3"><path d="
M 339.00 37.00 
C 335.84 33.00 331.91 29.34 328.00 26.00
C 331.48 29.48 335.63 33.35 339.00 37.00 Z"/>
</g>
<g fill="None" fill-opacity="0.0" stroke="#E1908F" stroke-opacity="1.00" stroke-width="0.3"><path d="
M 74.00 85.00 
C 78.27 84.77 82.73 84.84 87.00 85.00
C 82.78 84.40 78.30 84.30 74.00 85.00 Z"/>
</g>
<g fill="None" fill-opacity="0.0" stroke="#E19190" stroke-opacity="1.00" stroke-width="0.3"><path d="
M 212.00 85.00 
C 216.29 84.77 220.71 84.91 225.00 85.00
C 220.82 84.49 216.29 84.30 212.00 85.00 Z"/>
</g>
<g fill="None" fill-opacity="0.0" stroke="#E08D8D" stroke-opacity="1.00" stroke-width="0.3"><path d="
M 497.00 85.00 
C 500.98 85.00 505.03 84.78 509.00 85.00
C 505.10 84.37 500.89 84.62 497.00 85.00 Z"/>
</g>
<g fill="None" fill-opacity="0.0" stroke="#E18E8E" stroke-opacity="1.00" stroke-width="0.3"><path d="
M 633.00 85.00 
C 636.97 84.78 641.02 85.00 645.00 85.00
C 641.18 84.63 636.96 84.36 633.00 85.00 Z"/>
</g>
<g fill="None" fill-opacity="0.0" stroke="#FEFEFE" stroke-opacity="1.00" stroke-width="0.3"><path d="
M 83.00 277.00 
C 89.05 283.05 95.54 289.48 102.00 295.00
C 106.31 298.68 110.07 303.07 114.00 307.00
C 117.25 310.25 120.79 313.79 124.00 317.00
C 133.04 324.43 141.21 333.05 150.00 341.00
C 155.25 333.85 163.10 328.34 169.25 322.25 C 175.40 316.16 182.30 310.28 188.25 304.25 C 194.20 298.21 201.22 291.75 206.75 285.75 C 212.28 279.75 221.47 272.59 225.25 266.25 C 229.03 259.91 243.79 253.20 239.75 246.25 C 235.71 239.30 227.40 233.55 222.25 226.75 C 217.10 219.96 210.19 212.95 205.25 205.75 C 200.31 198.56 193.76 192.39 189.25 184.75 C 184.74 177.10 178.83 170.30 174.92 162.08 C 171.02 153.85 166.76 144.76 164.00 136.00
C 157.50 142.70 154.94 152.95 149.00 160.00
C 134.74 125.89 104.27 89.72 64.07 99.07 C 23.88 108.43 1.94 157.74 18.08 192.92 C 34.21 228.11 58.25 248.04 83.00 277.00 Z"/>
</g>
<g fill="None" fill-opacity="0.0" stroke="#FEFDFD" stroke-opacity="1.00" stroke-width="0.3"><path d="
M 253.00 235.00 
C 264.33 221.05 273.44 209.63 281.07 193.07 C 288.71 176.51 287.92 151.22 278.92 135.08 C 269.93 118.93 259.89 108.91 242.22 101.78 C 224.56 94.64 204.26 95.80 188.25 108.25 C 172.24 120.69 182.99 141.88 191.23 156.77 C 199.47 171.67 209.69 184.60 220.23 197.77 C 230.77 210.94 240.54 223.42 253.00 235.00 Z"/>
</g>
<g fill="None" fill-opacity="0.0" stroke="#FEFDFD" stroke-opacity="1.00" stroke-width="0.3"><path d="
M 541.00 129.00 
C 541.45 126.85 543.16 121.55 543.00 120.00
C 518.46 84.10 466.86 93.93 444.92 128.92 C 422.97 163.91 440.05 208.36 468.00 236.00
C 494.88 203.35 532.06 171.43 541.00 129.00 Z"/>
</g>
<g fill="None" fill-opacity="0.0" stroke="#FEFEFE" stroke-opacity="1.00" stroke-width="0.3"><path d="
M 605.00 309.00 
C 617.59 296.42 630.46 283.54 643.00 271.00
C 666.46 242.21 692.89 222.11 705.01 186.01 C 717.13 149.91 691.51 104.60 652.00 98.00 C 612.50 91.40 586.08 130.27 570.00 160.00
C 566.01 152.32 563.04 141.94 556.00 137.00
C 554.73 146.35 549.45 156.09 545.25 164.25 C 541.06 172.42 535.47 179.27 530.77 186.77 C 526.07 194.27 519.76 200.80 514.75 207.75 C 509.75 214.70 502.71 221.46 498.25 228.25 C 493.79 235.03 483.23 240.66 480.79 247.77 C 478.35 254.89 492.78 261.25 496.25 267.75 C 499.71 274.26 508.95 280.59 514.25 286.75 C 519.55 292.92 527.05 299.27 533.25 304.75 C 539.45 310.24 545.32 317.82 551.92 323.08 C 558.52 328.35 564.85 335.72 572.00 340.00
C 582.61 329.48 593.53 318.80 605.00 309.00 Z"/>
</g>
<g fill="None" fill-opacity="0.0" stroke="#CF6C6C" stroke-opacity="1.00" stroke-width="0.3"><path d="
M 161.00 117.00 
C 162.75 112.26 162.00 105.55 162.00 100.00
C 161.57 104.46 162.09 112.07 161.00 117.00 Z"/>
</g>
<g fill="None" fill-opacity="0.0" stroke="#D0706F" stroke-opacity="1.00" stroke-width="0.3"><path d="
M 541.00 129.00 
C 541.96 126.16 543.69 123.73 543.00 120.00
C 543.16 121.55 541.45 126.85 541.00 129.00 Z"/>
</g>
<g fill="None" fill-opacity="0.0" stroke="#B4231F" stroke-opacity="1.00" stroke-width="0.3"><path d="
M 361.00 130.00 
C 348.13 156.05 323.81 178.11 327.68 210.32 C 331.55 242.53 389.54 242.71 393.22 210.22 C 396.90 177.73 372.85 157.36 361.00 130.00
M 365.00 232.00 
C 361.73 232.72 359.19 232.62 356.00 232.00
C 333.62 230.22 325.29 203.51 333.98 185.98 C 342.67 168.44 350.02 152.49 360.00 136.00
C 371.69 151.51 377.51 167.80 386.77 185.23 C 396.03 202.66 387.66 230.24 365.00 232.00 Z"/>
</g>
<g fill="None" fill-opacity="0.0" stroke="#FEFCFB" stroke-opacity="1.00" stroke-width="0.3"><path d="
M 356.00 232.00 
C 358.84 232.23 362.17 232.29 365.00 232.00
C 387.66 230.24 396.03 202.66 386.77 185.23 C 377.51 167.80 371.69 151.51 360.00 136.00
C 350.02 152.49 342.67 168.44 333.98 185.98 C 325.29 203.51 333.62 230.22 356.00 232.00
M 385.00 207.00 
C 381.56 236.67 332.04 230.94 335.00 201.00
C 352.81 193.04 366.94 209.90 385.00 207.00 Z"/>
</g>
<g fill="None" fill-opacity="0.0" stroke="#F5DADA" stroke-opacity="1.00" stroke-width="0.3"><path d="
M 720.00 175.00 
C 720.00 174.99 721.00 175.00 721.00 175.00
L 721.00 158.00
C 721.00 158.00 720.00 157.98 720.00 158.00
C 720.21 163.59 720.30 169.42 720.00 175.00 Z"/>
</g>
<g fill="None" fill-opacity="0.0" stroke="#FEFEFE" stroke-opacity="1.00" stroke-width="0.3"><path d="
M 650.00 282.00 
C 640.45 293.18 629.13 304.49 618.00 314.00
C 602.13 328.80 585.75 343.40 570.00 358.00
C 554.72 342.41 538.22 325.72 521.00 311.00
C 511.89 303.21 502.74 294.06 495.00 285.00
C 486.55 276.46 479.00 266.95 470.00 259.00
C 434.13 295.67 397.51 332.95 358.00 364.00
C 356.69 362.25 356.10 359.68 355.00 358.00
C 353.69 356.28 350.61 353.40 349.00 352.00
C 336.71 341.29 324.59 329.76 312.00 319.00
C 308.05 315.62 304.60 311.60 301.00 308.00
C 283.55 292.05 267.50 274.00 250.00 258.00
C 219.24 293.94 183.37 326.95 148.00 358.00
C 134.43 340.03 113.86 327.38 99.00 310.00
C 90.41 301.41 80.88 293.22 73.00 284.00
C 44.40 250.53 7.97 219.81 0.00 176.00
L 0.00 366.00
L 721.00 366.00
L 721.00 175.00
C 721.00 175.00 720.00 174.99 720.00 175.00
C 718.78 197.42 703.49 217.50 690.77 234.77 C 678.05 252.04 664.01 265.61 650.00 282.00 Z"/>
</g>
<g fill="None" fill-opacity="0.0" stroke="#AE0D0A" stroke-opacity="1.00" stroke-width="0.3"><path d="
M 385.00 207.00 
C 366.94 209.90 352.81 193.04 335.00 201.00
C 332.04 230.94 381.56 236.67 385.00 207.00 Z"/>
</g>
<g fill="None" fill-opacity="0.0" stroke="#D37675" stroke-opacity="1.00" stroke-width="0.3"><path d="
M 365.00 232.00 
C 362.17 232.29 358.84 232.23 356.00 232.00
C 359.19 232.62 361.73 232.72 365.00 232.00 Z"/>
</g>
<g fill="None" fill-opacity="0.0" stroke="#DC9291" stroke-opacity="1.00" stroke-width="0.3"><path d="
M 313.00 297.00 
C 305.07 289.07 296.31 280.67 288.75 272.25 C 281.19 263.83 270.64 256.94 264.00 248.00
C 269.90 257.41 280.75 264.40 288.25 272.75 C 295.75 281.10 304.49 289.73 313.00 297.00 Z"/>
</g>
<g fill="None" fill-opacity="0.0" stroke="#DE8585" stroke-opacity="1.00" stroke-width="0.3"><path d="
M 605.00 309.00 
C 618.20 297.72 631.68 284.25 643.00 271.00
C 630.46 283.54 617.59 296.42 605.00 309.00 Z"/>
</g>
<g fill="None" fill-opacity="0.0" stroke="#CA4140" stroke-opacity="1.00" stroke-width="0.3"><path d="
M 73.00 284.00 
C 80.88 293.22 90.41 301.41 99.00 310.00
C 93.91 302.81 84.98 297.71 81.00 290.00
C 84.08 288.33 85.89 284.73 89.00 283.00
C 94.14 288.94 99.98 294.86 106.00 300.00
C 104.57 298.57 103.38 296.38 102.00 295.00
C 95.54 289.48 89.05 283.05 83.00 277.00
C 83.71 279.32 87.27 280.25 87.00 283.00
C 83.92 284.67 82.11 288.27 79.00 290.00
C 77.84 287.41 74.92 285.92 73.00 284.00 Z"/>
</g>
<g fill="None" fill-opacity="0.0" stroke="#E49B9A" stroke-opacity="1.00" stroke-width="0.3"><path d="
M 618.00 314.00 
C 629.13 304.49 640.45 293.18 650.00 282.00
C 639.46 292.54 628.58 303.42 618.00 314.00 Z"/>
</g>
<g fill="None" fill-opacity="0.0" stroke="#E29392" stroke-opacity="1.00" stroke-width="0.3"><path d="
M 521.00 311.00 
C 512.46 302.46 503.58 293.58 495.00 285.00
C 502.74 294.06 511.89 303.21 521.00 311.00 Z"/>
</g>
<g fill="None" fill-opacity="0.0" stroke="#F4D7D7" stroke-opacity="1.00" stroke-width="0.3"><path d="
M 106.00 300.00 
C 108.56 302.19 111.58 304.58 114.00 307.00
C 110.07 303.07 106.31 298.68 102.00 295.00
C 103.38 296.38 104.57 298.57 106.00 300.00 Z"/>
</g>
<g fill="None" fill-opacity="0.0" stroke="#DF8E8D" stroke-opacity="1.00" stroke-width="0.3"><path d="
M 124.00 317.00 
C 120.79 313.79 117.25 310.25 114.00 307.00
C 117.27 310.27 120.40 313.93 124.00 317.00 Z"/>
</g>
<g fill="None" fill-opacity="0.0" stroke="#D78585" stroke-opacity="1.00" stroke-width="0.3"><path d="
M 312.00 319.00 
C 308.40 315.40 304.95 311.38 301.00 308.00
C 304.60 311.60 308.05 315.62 312.00 319.00 Z"/>
</g>
<g fill="None" fill-opacity="0.0" stroke="#D68B8B" stroke-opacity="1.00" stroke-width="0.3"><path d="
M 385.00 319.00 
C 388.90 315.67 392.35 311.65 396.00 308.00
C 392.10 311.33 388.65 315.35 385.00 319.00 Z"/>
</g>
<g fill="None" fill-opacity="0.0" stroke="#BA413F" stroke-opacity="1.00" stroke-width="0.3"><path d="
M 349.00 352.00 
C 350.61 353.40 353.69 356.28 355.00 358.00
C 354.29 355.68 350.73 354.75 351.00 352.00
C 356.05 349.66 358.12 343.76 361.00 340.00
C 358.62 340.20 354.64 335.64 353.00 334.00
C 354.55 335.81 360.98 341.68 357.75 343.75 C 354.52 345.83 352.61 351.78 349.00 352.00 Z"/>
</g>
<g fill="#FEFEFE" fill-opacity="1.00" stroke="None">
<path d="
M 0.00 156.00 
C 4.90 119.94 36.53 87.03 74.00 85.00
C 78.30 84.30 82.78 84.40 87.00 85.00
C 114.52 86.05 135.56 112.60 149.00 134.00
C 153.43 128.94 157.48 122.68 161.00 117.00
C 162.09 112.07 161.57 104.46 162.00 100.00
C 162.00 52.96 210.37 -0.03 259.00 1.00
C 258.80 0.60 259.00 0.00 259.00 0.00
L 0.00 0.00
L 0.00 156.00 Z"/>
</g>
<g fill="#BA3A38" fill-opacity="1.00" stroke="None">
<path d="
M 259.00 1.00 
C 261.84 6.81 268.93 10.35 272.00 16.00
C 269.81 16.52 266.38 14.86 265.00 17.00
C 268.27 16.93 271.74 16.71 275.00 17.00
C 269.08 13.81 265.26 4.39 261.00 0.00
L 259.00 0.00
C 259.00 0.00 258.80 0.60 259.00 1.00 Z"/>
</g>
<g fill="#B61411" fill-opacity="1.00" stroke="None">
<path d="
M 275.00 17.00 
C 295.87 18.84 313.41 34.15 327.75 49.25 C 342.10 64.34 350.00 85.63 362.00 101.00
C 379.35 65.18 406.72 19.02 452.00 17.00 C 497.28 14.98 540.85 56.15 543.00 101.00
C 533.06 92.99 521.99 85.75 509.00 85.00
C 505.03 84.78 500.98 85.00 497.00 85.00
C 485.27 85.00 472.53 89.10 462.92 94.92 C 453.31 100.73 446.06 106.30 439.25 115.25 C 432.43 124.19 427.14 132.99 424.07 144.07 C 421.01 155.16 420.98 173.38 423.33 184.67 C 425.68 195.96 431.97 205.96 437.30 215.70 C 442.64 225.43 449.87 231.97 456.25 240.75 C 462.63 249.54 447.19 256.97 441.25 264.25 C 435.31 271.53 426.08 279.02 419.25 286.25 C 412.42 293.48 403.61 301.50 396.00 308.00
C 392.35 311.65 388.90 315.67 385.00 319.00
C 377.60 325.32 366.81 332.41 361.00 340.00
C 358.12 343.76 356.05 349.66 351.00 352.00
C 350.73 354.75 354.29 355.68 355.00 358.00
C 356.10 359.68 356.69 362.25 358.00 364.00
C 397.51 332.95 434.13 295.67 470.00 259.00
C 479.00 266.95 486.55 276.46 495.00 285.00
C 503.58 293.58 512.46 302.46 521.00 311.00
C 538.22 325.72 554.72 342.41 570.00 358.00
C 585.75 343.40 602.13 328.80 618.00 314.00
C 628.58 303.42 639.46 292.54 650.00 282.00
C 664.01 265.61 678.05 252.04 690.77 234.77 C 703.49 217.50 718.78 197.42 720.00 175.00
C 720.30 169.42 720.21 163.59 720.00 158.00
C 718.58 120.80 682.41 85.00 645.00 85.00
C 641.02 85.00 636.97 84.78 633.00 85.00
C 606.26 86.45 585.69 112.34 572.00 133.00
C 555.40 123.01 561.59 99.86 557.22 83.78 C 552.85 67.69 546.33 53.08 536.00 40.00
C 531.99 35.11 525.73 29.12 521.00 25.00
C 503.42 11.93 483.50 2.38 462.00 0.00
L 441.00 0.00
C 406.63 7.60 379.35 36.57 361.00 66.00
C 354.13 56.25 346.92 46.27 339.00 37.00
C 335.63 33.35 331.48 29.48 328.00 26.00
C 313.76 13.83 297.90 3.78 280.00 0.00
L 261.00 0.00
C 265.26 4.39 269.08 13.81 275.00 17.00
M 543.00 120.00 
C 543.69 123.73 541.96 126.16 541.00 129.00
C 532.06 171.43 494.88 203.35 468.00 236.00
C 440.05 208.36 422.97 163.91 444.92 128.92 C 466.86 93.93 518.46 84.10 543.00 120.00
M 643.00 271.00 
C 631.68 284.25 618.20 297.72 605.00 309.00
C 593.53 318.80 582.61 329.48 572.00 340.00
C 564.85 335.72 558.52 328.35 551.92 323.08 C 545.32 317.82 539.45 310.24 533.25 304.75 C 527.05 299.27 519.55 292.92 514.25 286.75 C 508.95 280.59 499.71 274.26 496.25 267.75 C 492.78 261.25 478.35 254.89 480.79 247.77 C 483.23 240.66 493.79 235.03 498.25 228.25 C 502.71 221.46 509.75 214.70 514.75 207.75 C 519.76 200.80 526.07 194.27 530.77 186.77 C 535.47 179.27 541.06 172.42 545.25 164.25 C 549.45 156.09 554.73 146.35 556.00 137.00
C 563.04 141.94 566.01 152.32 570.00 160.00
C 586.08 130.27 612.50 91.40 652.00 98.00 C 691.51 104.60 717.13 149.91 705.01 186.01 C 692.89 222.11 666.46 242.21 643.00 271.00 Z"/>
</g>
<g fill="#FEFDFC" fill-opacity="1.00" stroke="None">
<path d="
M 328.00 26.00 
C 331.91 29.34 335.84 33.00 339.00 37.00
C 346.92 46.27 354.13 56.25 361.00 66.00
C 379.35 36.57 406.63 7.60 441.00 0.00
L 280.00 0.00
C 297.90 3.78 313.76 13.83 328.00 26.00 Z"/>
</g>
<g fill="#FEFEFE" fill-opacity="1.00" stroke="None">
<path d="
M 521.00 25.00 
C 526.23 28.89 532.29 34.70 536.00 40.00
C 546.33 53.08 552.85 67.69 557.22 83.78 C 561.59 99.86 555.40 123.01 572.00 133.00
C 585.69 112.34 606.26 86.45 633.00 85.00
C 636.96 84.36 641.18 84.63 645.00 85.00
C 682.41 85.00 718.58 120.80 720.00 158.00
C 720.00 157.98 721.00 158.00 721.00 158.00
L 721.00 0.00
L 462.00 0.00
C 483.50 2.38 503.42 11.93 521.00 25.00 Z"/>
</g>
<g fill="#B81411" fill-opacity="1.00" stroke="None">
<path d="
M 162.00 100.00 
C 162.00 105.55 162.75 112.26 161.00 117.00
C 157.48 122.68 153.43 128.94 149.00 134.00
C 135.56 112.60 114.52 86.05 87.00 85.00
C 82.73 84.84 78.27 84.77 74.00 85.00
C 36.53 87.03 4.90 119.94 0.00 156.00
L 0.00 176.00
C 7.97 219.81 44.40 250.53 73.00 284.00
C 74.92 285.92 77.84 287.41 79.00 290.00
C 82.11 288.27 83.92 284.67 87.00 283.00
C 87.27 280.25 83.71 279.32 83.00 277.00
C 58.25 248.04 34.21 228.11 18.08 192.92 C 1.94 157.74 23.88 108.43 64.07 99.07 C 104.27 89.72 134.74 125.89 149.00 160.00
C 154.94 152.95 157.50 142.70 164.00 136.00
C 166.76 144.76 171.02 153.85 174.92 162.08 C 178.83 170.30 184.74 177.10 189.25 184.75 C 193.76 192.39 200.31 198.56 205.25 205.75 C 210.19 212.95 217.10 219.96 222.25 226.75 C 227.40 233.55 235.71 239.30 239.75 246.25 C 243.79 253.20 229.03 259.91 225.25 266.25 C 221.47 272.59 212.28 279.75 206.75 285.75 C 201.22 291.75 194.20 298.21 188.25 304.25 C 182.30 310.28 175.40 316.16 169.25 322.25 C 163.10 328.34 155.25 333.85 150.00 341.00
C 141.21 333.05 133.04 324.43 124.00 317.00
C 120.40 313.93 117.27 310.27 114.00 307.00
C 111.58 304.58 108.56 302.19 106.00 300.00
C 99.98 294.86 94.14 288.94 89.00 283.00
C 85.89 284.73 84.08 288.33 81.00 290.00
C 84.98 297.71 93.91 302.81 99.00 310.00
C 113.86 327.38 134.43 340.03 148.00 358.00
C 183.37 326.95 219.24 293.94 250.00 258.00
C 267.50 274.00 283.55 292.05 301.00 308.00
C 304.95 311.38 308.40 315.40 312.00 319.00
C 324.59 329.76 336.71 341.29 349.00 352.00
C 352.61 351.78 354.52 345.83 357.75 343.75 C 360.98 341.68 354.55 335.81 353.00 334.00
C 341.67 320.74 326.35 308.41 313.00 297.00
C 304.49 289.73 295.75 281.10 288.25 272.75 C 280.75 264.40 269.90 257.41 264.00 248.00
C 259.52 240.85 272.66 233.06 276.30 225.30 C 279.94 217.55 287.64 210.36 291.25 201.25 C 294.86 192.14 298.96 179.81 299.00 169.00 C 299.04 158.19 297.38 145.39 293.07 135.93 C 288.77 126.46 285.10 118.66 277.75 111.25 C 270.40 103.84 265.02 98.79 255.92 94.08 C 246.83 89.37 235.66 85.21 225.00 85.00
C 220.71 84.91 216.29 84.77 212.00 85.00
C 199.48 85.68 189.21 92.30 179.00 99.00
C 181.42 55.37 221.83 18.42 265.00 17.00
C 266.38 14.86 269.81 16.52 272.00 16.00
C 268.93 10.35 261.84 6.81 259.00 1.00
C 210.37 -0.03 162.00 52.96 162.00 100.00
M 253.00 235.00 
C 240.54 223.42 230.77 210.94 220.23 197.77 C 209.69 184.60 199.47 171.67 191.23 156.77 C 182.99 141.88 172.24 120.69 188.25 108.25 C 204.26 95.80 224.56 94.64 242.22 101.78 C 259.89 108.91 269.93 118.93 278.92 135.08 C 287.92 151.22 288.71 176.51 281.07 193.07 C 273.44 209.63 264.33 221.05 253.00 235.00 Z"/>
</g>
<g fill="#FEFDFD" fill-opacity="1.00" stroke="None">
<path d="
M 212.00 85.00 
C 216.29 84.30 220.82 84.49 225.00 85.00
C 235.66 85.21 246.83 89.37 255.92 94.08 C 265.02 98.79 270.40 103.84 277.75 111.25 C 285.10 118.66 288.77 126.46 293.07 135.93 C 297.38 145.39 299.04 158.19 299.00 169.00 C 298.96 179.81 294.86 192.14 291.25 201.25 C 287.64 210.36 279.94 217.55 276.30 225.30 C 272.66 233.06 259.52 240.85 264.00 248.00
C 270.64 256.94 281.19 263.83 288.75 272.25 C 296.31 280.67 305.07 289.07 313.00 297.00
C 326.35 308.41 341.67 320.74 353.00 334.00
C 354.64 335.64 358.62 340.20 361.00 340.00
C 366.81 332.41 377.60 325.32 385.00 319.00
C 388.65 315.35 392.10 311.33 396.00 308.00
C 403.61 301.50 412.42 293.48 419.25 286.25 C 426.08 279.02 435.31 271.53 441.25 264.25 C 447.19 256.97 462.63 249.54 456.25 240.75 C 449.87 231.97 442.64 225.43 437.30 215.70 C 431.97 205.96 425.68 195.96 423.33 184.67 C 420.98 173.38 421.01 155.16 424.07 144.07 C 427.14 132.99 432.43 124.19 439.25 115.25 C 446.06 106.30 453.31 100.73 462.92 94.92 C 472.53 89.10 485.27 85.00 497.00 85.00
C 500.89 84.62 505.10 84.37 509.00 85.00
C 521.99 85.75 533.06 92.99 543.00 101.00
C 540.85 56.15 497.28 14.98 452.00 17.00 C 406.72 19.02 379.35 65.18 362.00 101.00
C 350.00 85.63 342.10 64.34 327.75 49.25 C 313.41 34.15 295.87 18.84 275.00 17.00
C 271.74 16.71 268.27 16.93 265.00 17.00
C 221.83 18.42 181.42 55.37 179.00 99.00
C 189.21 92.30 199.48 85.68 212.00 85.00
M 361.00 130.00 
C 372.85 157.36 396.90 177.73 393.22 210.22 C 389.54 242.71 331.55 242.53 327.68 210.32 C 323.81 178.11 348.13 156.05 361.00 130.00 Z"/>
</g>
<g fill="#C98180" fill-opacity="1.00" stroke="None">
<path d="
M 536.00 40.00 
C 532.29 34.70 526.23 28.89 521.00 25.00
C 525.73 29.12 531.99 35.11 536.00 40.00 Z"/>
</g>
<g fill="#D88685" fill-opacity="1.00" stroke="None">
<path d="
M 339.00 37.00 
C 335.84 33.00 331.91 29.34 328.00 26.00
C 331.48 29.48 335.63 33.35 339.00 37.00 Z"/>
</g>
<g fill="#E1908F" fill-opacity="1.00" stroke="None">
<path d="
M 74.00 85.00 
C 78.27 84.77 82.73 84.84 87.00 85.00
C 82.78 84.40 78.30 84.30 74.00 85.00 Z"/>
</g>
<g fill="#E19190" fill-opacity="1.00" stroke="None">
<path d="
M 212.00 85.00 
C 216.29 84.77 220.71 84.91 225.00 85.00
C 220.82 84.49 216.29 84.30 212.00 85.00 Z"/>
</g>
<g fill="#E08D8D" fill-opacity="1.00" stroke="None">
<path d="
M 497.00 85.00 
C 500.98 85.00 505.03 84.78 509.00 85.00
C 505.10 84.37 500.89 84.62 497.00 85.00 Z"/>
</g>
<g fill="#E18E8E" fill-opacity="1.00" stroke="None">
<path d="
M 633.00 85.00 
C 636.97 84.78 641.02 85.00 645.00 85.00
C 641.18 84.63 636.96 84.36 633.00 85.00 Z"/>
</g>
<g fill="#FEFEFE" fill-opacity="1.00" stroke="None">
<path d="
M 83.00 277.00 
C 89.05 283.05 95.54 289.48 102.00 295.00
C 106.31 298.68 110.07 303.07 114.00 307.00
C 117.25 310.25 120.79 313.79 124.00 317.00
C 133.04 324.43 141.21 333.05 150.00 341.00
C 155.25 333.85 163.10 328.34 169.25 322.25 C 175.40 316.16 182.30 310.28 188.25 304.25 C 194.20 298.21 201.22 291.75 206.75 285.75 C 212.28 279.75 221.47 272.59 225.25 266.25 C 229.03 259.91 243.79 253.20 239.75 246.25 C 235.71 239.30 227.40 233.55 222.25 226.75 C 217.10 219.96 210.19 212.95 205.25 205.75 C 200.31 198.56 193.76 192.39 189.25 184.75 C 184.74 177.10 178.83 170.30 174.92 162.08 C 171.02 153.85 166.76 144.76 164.00 136.00
C 157.50 142.70 154.94 152.95 149.00 160.00
C 134.74 125.89 104.27 89.72 64.07 99.07 C 23.88 108.43 1.94 157.74 18.08 192.92 C 34.21 228.11 58.25 248.04 83.00 277.00 Z"/>
</g>
<g fill="#FEFDFD" fill-opacity="1.00" stroke="None">
<path d="
M 253.00 235.00 
C 264.33 221.05 273.44 209.63 281.07 193.07 C 288.71 176.51 287.92 151.22 278.92 135.08 C 269.93 118.93 259.89 108.91 242.22 101.78 C 224.56 94.64 204.26 95.80 188.25 108.25 C 172.24 120.69 182.99 141.88 191.23 156.77 C 199.47 171.67 209.69 184.60 220.23 197.77 C 230.77 210.94 240.54 223.42 253.00 235.00 Z"/>
</g>
<g fill="#FEFDFD" fill-opacity="1.00" stroke="None">
<path d="
M 541.00 129.00 
C 541.45 126.85 543.16 121.55 543.00 120.00
C 518.46 84.10 466.86 93.93 444.92 128.92 C 422.97 163.91 440.05 208.36 468.00 236.00
C 494.88 203.35 532.06 171.43 541.00 129.00 Z"/>
</g>
<g fill="#FEFEFE" fill-opacity="1.00" stroke="None">
<path d="
M 605.00 309.00 
C 617.59 296.42 630.46 283.54 643.00 271.00
C 666.46 242.21 692.89 222.11 705.01 186.01 C 717.13 149.91 691.51 104.60 652.00 98.00 C 612.50 91.40 586.08 130.27 570.00 160.00
C 566.01 152.32 563.04 141.94 556.00 137.00
C 554.73 146.35 549.45 156.09 545.25 164.25 C 541.06 172.42 535.47 179.27 530.77 186.77 C 526.07 194.27 519.76 200.80 514.75 207.75 C 509.75 214.70 502.71 221.46 498.25 228.25 C 493.79 235.03 483.23 240.66 480.79 247.77 C 478.35 254.89 492.78 261.25 496.25 267.75 C 499.71 274.26 508.95 280.59 514.25 286.75 C 519.55 292.92 527.05 299.27 533.25 304.75 C 539.45 310.24 545.32 317.82 551.92 323.08 C 558.52 328.35 564.85 335.72 572.00 340.00
C 582.61 329.48 593.53 318.80 605.00 309.00 Z"/>
</g>
<g fill="#CF6C6C" fill-opacity="1.00" stroke="None">
<path d="
M 161.00 117.00 
C 162.75 112.26 162.00 105.55 162.00 100.00
C 161.57 104.46 162.09 112.07 161.00 117.00 Z"/>
</g>
<g fill="#D0706F" fill-opacity="1.00" stroke="None">
<path d="
M 541.00 129.00 
C 541.96 126.16 543.69 123.73 543.00 120.00
C 543.16 121.55 541.45 126.85 541.00 129.00 Z"/>
</g>
<g fill="#B4231F" fill-opacity="1.00" stroke="None">
<path d="
M 361.00 130.00 
C 348.13 156.05 323.81 178.11 327.68 210.32 C 331.55 242.53 389.54 242.71 393.22 210.22 C 396.90 177.73 372.85 157.36 361.00 130.00
M 365.00 232.00 
C 361.73 232.72 359.19 232.62 356.00 232.00
C 333.62 230.22 325.29 203.51 333.98 185.98 C 342.67 168.44 350.02 152.49 360.00 136.00
C 371.69 151.51 377.51 167.80 386.77 185.23 C 396.03 202.66 387.66 230.24 365.00 232.00 Z"/>
</g>
<g fill="#FEFCFB" fill-opacity="1.00" stroke="None">
<path d="
M 356.00 232.00 
C 358.84 232.23 362.17 232.29 365.00 232.00
C 387.66 230.24 396.03 202.66 386.77 185.23 C 377.51 167.80 371.69 151.51 360.00 136.00
C 350.02 152.49 342.67 168.44 333.98 185.98 C 325.29 203.51 333.62 230.22 356.00 232.00
M 385.00 207.00 
C 381.56 236.67 332.04 230.94 335.00 201.00
C 352.81 193.04 366.94 209.90 385.00 207.00 Z"/>
</g>
<g fill="#F5DADA" fill-opacity="1.00" stroke="None">
<path d="
M 720.00 175.00 
C 720.00 174.99 721.00 175.00 721.00 175.00
L 721.00 158.00
C 721.00 158.00 720.00 157.98 720.00 158.00
C 720.21 163.59 720.30 169.42 720.00 175.00 Z"/>
</g>
<g fill="#FEFEFE" fill-opacity="1.00" stroke="None">
<path d="
M 650.00 282.00 
C 640.45 293.18 629.13 304.49 618.00 314.00
C 602.13 328.80 585.75 343.40 570.00 358.00
C 554.72 342.41 538.22 325.72 521.00 311.00
C 511.89 303.21 502.74 294.06 495.00 285.00
C 486.55 276.46 479.00 266.95 470.00 259.00
C 434.13 295.67 397.51 332.95 358.00 364.00
C 356.69 362.25 356.10 359.68 355.00 358.00
C 353.69 356.28 350.61 353.40 349.00 352.00
C 336.71 341.29 324.59 329.76 312.00 319.00
C 308.05 315.62 304.60 311.60 301.00 308.00
C 283.55 292.05 267.50 274.00 250.00 258.00
C 219.24 293.94 183.37 326.95 148.00 358.00
C 134.43 340.03 113.86 327.38 99.00 310.00
C 90.41 301.41 80.88 293.22 73.00 284.00
C 44.40 250.53 7.97 219.81 0.00 176.00
L 0.00 366.00
L 721.00 366.00
L 721.00 175.00
C 721.00 175.00 720.00 174.99 720.00 175.00
C 718.78 197.42 703.49 217.50 690.77 234.77 C 678.05 252.04 664.01 265.61 650.00 282.00 Z"/>
</g>
<g fill="#AE0D0A" fill-opacity="1.00" stroke="None">
<path d="
M 385.00 207.00 
C 366.94 209.90 352.81 193.04 335.00 201.00
C 332.04 230.94 381.56 236.67 385.00 207.00 Z"/>
</g>
<g fill="#D37675" fill-opacity="1.00" stroke="None">
<path d="
M 365.00 232.00 
C 362.17 232.29 358.84 232.23 356.00 232.00
C 359.19 232.62 361.73 232.72 365.00 232.00 Z"/>
</g>
<g fill="#DC9291" fill-opacity="1.00" stroke="None">
<path d="
M 313.00 297.00 
C 305.07 289.07 296.31 280.67 288.75 272.25 C 281.19 263.83 270.64 256.94 264.00 248.00
C 269.90 257.41 280.75 264.40 288.25 272.75 C 295.75 281.10 304.49 289.73 313.00 297.00 Z"/>
</g>
<g fill="#DE8585" fill-opacity="1.00" stroke="None">
<path d="
M 605.00 309.00 
C 618.20 297.72 631.68 284.25 643.00 271.00
C 630.46 283.54 617.59 296.42 605.00 309.00 Z"/>
</g>
<g fill="#CA4140" fill-opacity="1.00" stroke="None">
<path d="
M 73.00 284.00 
C 80.88 293.22 90.41 301.41 99.00 310.00
C 93.91 302.81 84.98 297.71 81.00 290.00
C 84.08 288.33 85.89 284.73 89.00 283.00
C 94.14 288.94 99.98 294.86 106.00 300.00
C 104.57 298.57 103.38 296.38 102.00 295.00
C 95.54 289.48 89.05 283.05 83.00 277.00
C 83.71 279.32 87.27 280.25 87.00 283.00
C 83.92 284.67 82.11 288.27 79.00 290.00
C 77.84 287.41 74.92 285.92 73.00 284.00 Z"/>
</g>
<g fill="#E49B9A" fill-opacity="1.00" stroke="None">
<path d="
M 618.00 314.00 
C 629.13 304.49 640.45 293.18 650.00 282.00
C 639.46 292.54 628.58 303.42 618.00 314.00 Z"/>
</g>
<g fill="#E29392" fill-opacity="1.00" stroke="None">
<path d="
M 521.00 311.00 
C 512.46 302.46 503.58 293.58 495.00 285.00
C 502.74 294.06 511.89 303.21 521.00 311.00 Z"/>
</g>
<g fill="#F4D7D7" fill-opacity="1.00" stroke="None">
<path d="
M 106.00 300.00 
C 108.56 302.19 111.58 304.58 114.00 307.00
C 110.07 303.07 106.31 298.68 102.00 295.00
C 103.38 296.38 104.57 298.57 106.00 300.00 Z"/>
</g>
<g fill="#DF8E8D" fill-opacity="1.00" stroke="None">
<path d="
M 124.00 317.00 
C 120.79 313.79 117.25 310.25 114.00 307.00
C 117.27 310.27 120.40 313.93 124.00 317.00 Z"/>
</g>
<g fill="#D78585" fill-opacity="1.00" stroke="None">
<path d="
M 312.00 319.00 
C 308.40 315.40 304.95 311.38 301.00 308.00
C 304.60 311.60 308.05 315.62 312.00 319.00 Z"/>
</g>
<g fill="#D68B8B" fill-opacity="1.00" stroke="None">
<path d="
M 385.00 319.00 
C 388.90 315.67 392.35 311.65 396.00 308.00
C 392.10 311.33 388.65 315.35 385.00 319.00 Z"/>
</g>
<g fill="#BA413F" fill-opacity="1.00" stroke="None">
<path d="
M 349.00 352.00 
C 350.61 353.40 353.69 356.28 355.00 358.00
C 354.29 355.68 350.73 354.75 351.00 352.00
C 356.05 349.66 358.12 343.76 361.00 340.00
C 358.62 340.20 354.64 335.64 353.00 334.00
C 354.55 335.81 360.98 341.68 357.75 343.75 C 354.52 345.83 352.61 351.78 349.00 352.00 Z"/>
</g>
</svg>